<?xml version="1.0" encoding="UTF-8" standalone="no"?>
<!-- Created with Inkscape (http://www.inkscape.org/) -->

<svg
   width="29.999985"
   height="30"
   viewBox="0 0 7.9374958 7.9374997"
   version="1.1"
   id="svg1"
   xml:space="preserve"
   inkscape:version="1.3 (0e150ed6c4, 2023-07-21)"
   sodipodi:docname="risunok.svg"
   xmlns:inkscape="http://www.inkscape.org/namespaces/inkscape"
   xmlns:sodipodi="http://sodipodi.sourceforge.net/DTD/sodipodi-0.dtd"
   xmlns="http://www.w3.org/2000/svg"
   xmlns:svg="http://www.w3.org/2000/svg"><sodipodi:namedview
     id="namedview1"
     pagecolor="#ffffff"
     bordercolor="#000000"
     borderopacity="0.25"
     inkscape:showpageshadow="2"
     inkscape:pageopacity="0.0"
     inkscape:pagecheckerboard="0"
     inkscape:deskcolor="#d1d1d1"
     inkscape:document-units="mm"
     showguides="true"
     inkscape:zoom="1.28"
     inkscape:cx="207.42188"
     inkscape:cy="208.59375"
     inkscape:window-width="1600"
     inkscape:window-height="878"
     inkscape:window-x="-8"
     inkscape:window-y="-8"
     inkscape:window-maximized="1"
     inkscape:current-layer="layer1" /><defs
     id="defs1" /><g
     inkscape:label="Слой 1"
     inkscape:groupmode="layer"
     id="layer1"
     transform="translate(-60.368993,-27.636773)"><rect
       style="fill:#000000;fill-opacity:1;stroke-width:0.079375;stroke-linecap:round;stroke-linejoin:round;paint-order:fill markers stroke"
       id="rect1"
       width="79.375"
       height="105.83333"
       x="0"
       y="0" /><rect
       style="fill:#1a1a1a;fill-opacity:1;stroke-width:0.0764376;stroke-linecap:round;stroke-linejoin:round;paint-order:fill markers stroke"
       id="rect2"
       width="67.934837"
       height="94.355225"
       x="5.7200813"
       y="5.7390552"
       ry="2.898613" /><path
       id="rect20"
       style="fill:#fac659;fill-opacity:1;stroke:none;stroke-width:0.135304;stroke-linecap:round;stroke-linejoin:round;stroke-dasharray:none;stroke-opacity:1;paint-order:fill markers stroke"
       d="m 64.337733,29.923097 c -0.173166,0 -0.312719,0.135782 -0.312719,0.304271 v 1.074096 h -1.103479 c -0.173166,0 -0.312719,0.135358 -0.312719,0.303845 0,0.168489 0.139553,0.304271 0.312719,0.304271 h 1.103479 v 1.074097 c 0,0.168488 0.139553,0.303845 0.312719,0.303845 0.173165,0 0.312718,-0.135357 0.312718,-0.303845 V 31.90958 h 1.103478 c 0.173167,0 0.312719,-0.135782 0.312719,-0.304271 0,-0.168487 -0.139552,-0.303845 -0.312719,-0.303845 h -1.103478 v -1.074096 c 0,-0.168489 -0.139553,-0.304271 -0.312718,-0.304271 z m 3.96876,1.682428 a 3.9687501,3.9687499 0 0 1 -3.96875,3.96875 3.9687501,3.9687499 0 0 1 -3.96875,-3.96875 3.9687501,3.9687499 0 0 1 3.96875,-3.96875 3.9687501,3.9687499 0 0 1 3.96875,3.96875 z"
       inkscape:export-filename="add-btn.svg"
       inkscape:export-xdpi="96"
       inkscape:export-ydpi="96" /></g></svg>
