<?xml version="1.0" encoding="UTF-8" standalone="no"?>
<!-- Created with Inkscape (http://www.inkscape.org/) -->

<svg
   width="28.94838"
   height="29.75209"
   viewBox="0 0 7.6592586 7.871907"
   version="1.1"
   id="svg1"
   xml:space="preserve"
   inkscape:version="1.3 (0e150ed6c4, 2023-07-21)"
   sodipodi:docname="risunok.svg"
   xmlns:inkscape="http://www.inkscape.org/namespaces/inkscape"
   xmlns:sodipodi="http://sodipodi.sourceforge.net/DTD/sodipodi-0.dtd"
   xmlns="http://www.w3.org/2000/svg"
   xmlns:svg="http://www.w3.org/2000/svg"><sodipodi:namedview
     id="namedview1"
     pagecolor="#ffffff"
     bordercolor="#000000"
     borderopacity="0.25"
     inkscape:showpageshadow="2"
     inkscape:pageopacity="0.0"
     inkscape:pagecheckerboard="0"
     inkscape:deskcolor="#d1d1d1"
     inkscape:document-units="mm"
     showguides="true"
     inkscape:zoom="1.28"
     inkscape:cx="207.42188"
     inkscape:cy="208.59375"
     inkscape:window-width="1600"
     inkscape:window-height="878"
     inkscape:window-x="-8"
     inkscape:window-y="-8"
     inkscape:window-maximized="1"
     inkscape:current-layer="layer1" /><defs
     id="defs1" /><g
     inkscape:label="Слой 1"
     inkscape:groupmode="layer"
     id="layer1"
     transform="translate(-60.368993,-27.669574)"><rect
       style="fill:#000000;fill-opacity:1;stroke-width:0.079375;stroke-linecap:round;stroke-linejoin:round;paint-order:fill markers stroke"
       id="rect1"
       width="79.375"
       height="105.83333"
       x="0"
       y="0" /><rect
       style="fill:#1a1a1a;fill-opacity:1;stroke-width:0.0764376;stroke-linecap:round;stroke-linejoin:round;paint-order:fill markers stroke"
       id="rect2"
       width="67.934837"
       height="94.355225"
       x="5.7200813"
       y="5.7390552"
       ry="2.898613" /><path
       id="rect20"
       style="fill:#fac659;fill-opacity:1;stroke:none;stroke-width:0.132361;stroke-linecap:round;stroke-linejoin:round;stroke-dasharray:none;stroke-opacity:1;paint-order:fill markers stroke"
       d="m 64.198614,29.937001 c -0.167096,0 -0.301757,0.13466 -0.301757,0.301756 v 1.065221 h -1.064798 c -0.167096,0 -0.301757,0.134239 -0.301757,0.301334 0,0.167096 0.134661,0.301756 0.301757,0.301756 h 1.064798 v 1.065222 c 0,0.167095 0.134661,0.301334 0.301757,0.301334 0.167095,0 0.301756,-0.134239 0.301756,-0.301334 v -1.065222 h 1.064798 c 0.167096,0 0.301757,-0.13466 0.301757,-0.301756 0,-0.167095 -0.134661,-0.301334 -0.301757,-0.301334 H 64.50037 v -1.065221 c 0,-0.167096 -0.134661,-0.301756 -0.301756,-0.301756 z m 3.829641,1.668525 a 3.8296311,3.9359539 0 0 1 -3.829631,3.935954 3.8296311,3.9359539 0 0 1 -3.829631,-3.935954 3.8296311,3.9359539 0 0 1 3.829631,-3.935954 3.8296311,3.9359539 0 0 1 3.829631,3.935954 z" /></g></svg>
