<?xml version="1.0" encoding="UTF-8" standalone="no"?>
<!-- Created with Inkscape (http://www.inkscape.org/) -->

<svg
   width="163.94339"
   height="33.203121"
   viewBox="0 0 43.376687 8.7849922"
   version="1.1"
   id="svg1"
   xml:space="preserve"
   inkscape:version="1.3 (0e150ed6c4, 2023-07-21)"
   sodipodi:docname="risunok.svg"
   xmlns:inkscape="http://www.inkscape.org/namespaces/inkscape"
   xmlns:sodipodi="http://sodipodi.sourceforge.net/DTD/sodipodi-0.dtd"
   xmlns="http://www.w3.org/2000/svg"
   xmlns:svg="http://www.w3.org/2000/svg"><sodipodi:namedview
     id="namedview1"
     pagecolor="#ffffff"
     bordercolor="#000000"
     borderopacity="0.25"
     inkscape:showpageshadow="2"
     inkscape:pageopacity="0.0"
     inkscape:pagecheckerboard="0"
     inkscape:deskcolor="#d1d1d1"
     inkscape:document-units="mm"
     showguides="true"
     inkscape:zoom="1.28"
     inkscape:cx="207.42188"
     inkscape:cy="208.59375"
     inkscape:window-width="1600"
     inkscape:window-height="878"
     inkscape:window-x="-8"
     inkscape:window-y="-8"
     inkscape:window-maximized="1"
     inkscape:current-layer="layer1" /><defs
     id="defs1"><rect
       x="45.299026"
       y="34.802914"
       width="204.95049"
       height="46.95631"
       id="rect24" /></defs><g
     inkscape:label="Слой 1"
     inkscape:groupmode="layer"
     id="layer1"
     transform="translate(-17.999155,-12.050297)"><rect
       style="fill:#000000;fill-opacity:1;stroke-width:0.079375;stroke-linecap:round;stroke-linejoin:round;paint-order:fill markers stroke"
       id="rect1"
       width="79.375"
       height="105.83333"
       x="0"
       y="0" /><rect
       style="fill:#1a1a1a;fill-opacity:1;stroke-width:0.0764376;stroke-linecap:round;stroke-linejoin:round;paint-order:fill markers stroke"
       id="rect2"
       width="67.934837"
       height="94.355225"
       x="5.7200813"
       y="5.7390552"
       ry="2.898613" /><g
       id="g24"
       transform="translate(-71.740064,-1.6486987)"
       style="fill:#666666"><text
         xml:space="preserve"
         transform="matrix(0.68604025,0,0,0.68604025,68.163246,-8.629025)"
         id="text24"
         style="font-style:italic;font-variant:normal;font-weight:600;font-stretch:normal;font-size:10.6667px;line-height:1;font-family:Nunito;-inkscape-font-specification:'Nunito Semi-Bold Italic';letter-spacing:0.5px;white-space:pre;shape-inside:url(#rect24);fill:#666666;fill-opacity:1;stroke-width:0.3;stroke-linecap:round;stroke-linejoin:round;paint-order:fill markers stroke"><tspan
           x="45.298828"
           y="42.708918"
           id="tspan2"><tspan
             style="font-style:normal;font-weight:900;-inkscape-font-specification:'Nunito Heavy'"
             id="tspan1">INEROLL</tspan></tspan></text><path
         id="path24"
         style="fill:#666666;fill-opacity:1;stroke:none;stroke-width:0.264583;stroke-linecap:round;stroke-linejoin:round;stroke-dasharray:none;stroke-opacity:1;paint-order:fill markers stroke"
         d="m 94.131719,13.698996 a 4.3924966,4.3924966 0 0 0 -4.3925,4.392497 4.3924966,4.3924966 0 0 0 4.3925,4.392496 4.3924966,4.3924966 0 0 0 4.392497,-4.392496 4.3924966,4.3924966 0 0 0 -4.392497,-4.392497 z m 0.150887,1.615405 c 0.2343,0 0.47597,0.02821 0.72554,0.08423 0.25467,0.05093 0.47876,0.129718 0.67231,0.236678 0.14261,0.0764 0.24215,0.173275 0.29817,0.290421 0.056,0.117147 0.0736,0.236912 0.0532,0.359152 -0.0153,0.12224 -0.0584,0.231372 -0.12971,0.328145 -0.0713,0.09677 -0.16286,0.163301 -0.27492,0.198954 -0.11205,0.03056 -0.23447,0.01247 -0.3669,-0.05374 -0.1528,-0.07131 -0.30557,-0.124544 -0.45837,-0.160197 -0.1477,-0.04075 -0.30313,-0.0615 -0.46612,-0.0615 -0.315787,0 -0.580347,0.06121 -0.794267,0.183451 -0.20882,0.117147 -0.36691,0.290665 -0.47387,0.519865 -0.10696,0.2292 -0.1602,0.51185 -0.1602,0.84801 0,0.336161 0.0532,0.620952 0.1602,0.855245 0.10696,0.2292 0.26505,0.405377 0.47387,0.527617 0.21392,0.117146 0.47848,0.1757 0.794267,0.1757 0.13243,0 0.27508,-0.01543 0.42788,-0.04599 0.1528,-0.03565 0.30291,-0.08941 0.45062,-0.160714 0.1528,-0.06621 0.288,-0.08379 0.40514,-0.05323 0.12224,0.03056 0.21912,0.09177 0.29042,0.183451 0.0764,0.09168 0.12484,0.198671 0.14522,0.320911 0.0204,0.117147 0.002,0.234253 -0.0537,0.3514 -0.0509,0.117147 -0.14249,0.211363 -0.27492,0.28267 -0.17826,0.10696 -0.3997,0.191061 -0.66456,0.252181 -0.25976,0.06112 -0.51952,0.09147 -0.77928,0.09147 -0.595917,0 -1.107977,-0.114448 -1.535817,-0.343648 -0.42784,-0.2292 -0.75627,-0.55283 -0.98547,-0.970483 -0.22411,-0.417654 -0.33641,-0.906311 -0.33641,-1.466578 0,-0.417653 0.0639,-0.797178 0.1912,-1.138431 0.13243,-0.341254 0.32086,-0.63402 0.56534,-0.8785 0.24957,-0.24448 0.55031,-0.430772 0.90175,-0.558105 0.35654,-0.132427 0.75629,-0.198438 1.199407,-0.198438 z" /></g></g></svg>
