<?xml version="1.0" encoding="UTF-8" standalone="no"?>
<!-- Created with Inkscape (http://www.inkscape.org/) -->

<svg
   width="158.38647"
   height="28.067139"
   viewBox="0 0 41.90642 7.4260969"
   version="1.1"
   id="svg1"
   xml:space="preserve"
   inkscape:version="1.3 (0e150ed6c4, 2023-07-21)"
   sodipodi:docname="risunok.svg"
   xmlns:inkscape="http://www.inkscape.org/namespaces/inkscape"
   xmlns:sodipodi="http://sodipodi.sourceforge.net/DTD/sodipodi-0.dtd"
   xmlns="http://www.w3.org/2000/svg"
   xmlns:svg="http://www.w3.org/2000/svg"><sodipodi:namedview
     id="namedview1"
     pagecolor="#ffffff"
     bordercolor="#000000"
     borderopacity="0.25"
     inkscape:showpageshadow="2"
     inkscape:pageopacity="0.0"
     inkscape:pagecheckerboard="0"
     inkscape:deskcolor="#d1d1d1"
     inkscape:document-units="mm"
     showguides="true"
     inkscape:zoom="1.28"
     inkscape:cx="207.42188"
     inkscape:cy="208.59375"
     inkscape:window-width="1600"
     inkscape:window-height="878"
     inkscape:window-x="-8"
     inkscape:window-y="-8"
     inkscape:window-maximized="1"
     inkscape:current-layer="layer1" /><defs
     id="defs1" /><g
     inkscape:label="Слой 1"
     inkscape:groupmode="layer"
     id="layer1"
     transform="translate(-229.88732,-177.19898)"><path
       id="path39"
       style="font-weight:900;font-size:9.33333px;line-height:1;font-family:Nunito;-inkscape-font-specification:'Nunito Heavy';letter-spacing:0.5px;white-space:pre;fill:#666666;stroke-width:0.172327;stroke-linecap:round;stroke-linejoin:round;paint-order:fill markers stroke"
       d="m 233.59349,177.19952 c -0.0556,0.001 -0.11105,0.004 -0.16691,0.008 -0.11426,0.009 -0.23021,0.029 -0.34417,0.0625 l -2.04897,0.59893 c -0.35015,0.10222 -0.65135,0.30874 -0.84852,0.58084 -0.12358,0.17127 -0.21091,0.35664 -0.25994,0.55139 -0.0324,0.12844 -0.0437,0.2716 -0.0346,0.4377 l 0.11421,2.09186 c 0.0338,0.60945 0.21454,1.08045 0.55293,1.44022 l 1.40974,1.34411 c 0.41231,0.34047 0.98661,0.40029 1.75389,0.18138 0.0448,-0.0132 0.0925,-0.029 0.14573,-0.0496 l 2.19573,-0.85679 c 0.22134,-0.0863 0.40551,-0.20379 0.54674,-0.34985 0.22513,-0.23272 0.35116,-0.51673 0.37465,-0.84439 l 0.0377,-2.7926 c 0.0155,-0.44268 -0.23993,-0.86648 -0.78032,-1.29708 -0.0459,-0.0366 -0.0976,-0.0719 -0.15761,-0.10852 l -1.10329,-0.67489 c -0.0883,-0.0539 -0.16829,-0.0945 -0.24495,-0.12351 -0.36891,-0.13989 -0.75259,-0.2069 -1.14205,-0.19947 z m -0.13229,0.55449 c 0.6982,-0.0159 1.2691,0.19693 1.27538,0.4749 0.006,0.27796 -0.55493,0.5162 -1.25316,0.53175 -0.69819,0.0159 -1.2691,-0.19693 -1.27537,-0.4749 -0.006,-0.27797 0.55458,-0.51586 1.25315,-0.53175 z m 8.06824,0.94826 c -0.3526,0 -0.67078,0.0528 -0.95446,0.15813 -0.27965,0.10132 -0.51917,0.24884 -0.71779,0.44338 -0.19454,0.19453 -0.34424,0.42765 -0.44958,0.69919 -0.10135,0.27154 -0.15193,0.57354 -0.15193,0.90588 0,0.44581 0.0888,0.83505 0.26717,1.16737 0.18238,0.33233 0.44401,0.58967 0.78445,0.77205 0.34044,0.18238 0.74795,0.27337 1.22214,0.27337 0.2067,0 0.41342,-0.0242 0.62012,-0.0729 0.21073,-0.0486 0.38678,-0.11541 0.52865,-0.20051 0.1055,-0.0567 0.17871,-0.13157 0.21911,-0.22479 0.0443,-0.0932 0.0579,-0.18635 0.0419,-0.27957 -0.0162,-0.0973 -0.0544,-0.18286 -0.11524,-0.2558 -0.0568,-0.0729 -0.13373,-0.1214 -0.231,-0.14573 -0.0932,-0.0243 -0.20087,-0.0103 -0.32246,0.0424 -0.11754,0.0568 -0.23705,0.0993 -0.35863,0.12764 -0.12159,0.0243 -0.23516,0.0367 -0.34055,0.0367 -0.25125,0 -0.46178,-0.0468 -0.632,-0.14004 -0.16619,-0.0973 -0.29162,-0.23672 -0.37672,-0.4191 -0.0851,-0.18643 -0.12764,-0.41361 -0.12764,-0.6811 0,-0.26749 0.0425,-0.49252 0.12764,-0.67489 0.0851,-0.18238 0.21053,-0.32019 0.37672,-0.41341 0.17022,-0.0973 0.38075,-0.14573 0.632,-0.14573 0.12971,0 0.25348,0.0161 0.37104,0.0486 0.12158,0.0284 0.24325,0.0709 0.36483,0.12764 0.10535,0.0527 0.20279,0.0667 0.29198,0.0424 0.0892,-0.0284 0.16185,-0.0806 0.21859,-0.15761 0.0567,-0.077 0.0912,-0.16421 0.10335,-0.26148 0.0164,-0.0973 0.002,-0.19256 -0.0424,-0.28577 -0.0446,-0.0932 -0.12373,-0.1702 -0.2372,-0.231 -0.15402,-0.0851 -0.33223,-0.14809 -0.53485,-0.18862 -0.19862,-0.0446 -0.39081,-0.0667 -0.57723,-0.0667 z m 20.13986,0 c -0.32424,0 -0.62031,0.0522 -0.8878,0.15761 -0.26749,0.10132 -0.49844,0.24936 -0.69298,0.4439 -0.19045,0.19454 -0.33851,0.42765 -0.4439,0.69919 -0.10131,0.27155 -0.15193,0.57355 -0.15193,0.90588 0,0.44176 0.0894,0.82883 0.26768,1.16117 0.18238,0.33233 0.43757,0.59181 0.76585,0.77825 0.32829,0.18238 0.70941,0.27337 1.14308,0.27337 0.32424,0 0.61978,-0.0506 0.88728,-0.15193 0.26748,-0.10538 0.49684,-0.25556 0.6873,-0.4501 0.19454,-0.19859 0.34256,-0.43333 0.4439,-0.70487 0.10535,-0.27155 0.15761,-0.57356 0.15761,-0.90589 0,-0.44582 -0.091,-0.83289 -0.27336,-1.16117 -0.18238,-0.33231 -0.43757,-0.58966 -0.76585,-0.77204 -0.3242,-0.18238 -0.70321,-0.27337 -1.13688,-0.27337 z m -17.23667,0.0119 c -0.17829,0 -0.31614,0.0485 -0.41342,0.14572 -0.0973,0.0973 -0.14572,0.2394 -0.14572,0.42582 v 3.25251 c 0,0.18238 0.0485,0.32398 0.14572,0.4253 0.0973,0.0973 0.23513,0.14624 0.41342,0.14624 0.18647,0 0.32642,-0.049 0.41961,-0.14624 0.0932,-0.10132 0.13952,-0.24292 0.13952,-0.4253 v -3.25251 c 0,-0.18642 -0.0485,-0.32855 -0.14572,-0.42582 -0.0932,-0.0973 -0.23103,-0.14572 -0.41341,-0.14572 z m 2.14922,0 c -0.14591,0 -0.26329,0.0485 -0.35244,0.14572 -0.0891,0.0932 -0.13384,0.2294 -0.13384,0.40773 v 3.31298 c 0,0.17427 0.0447,0.30615 0.13384,0.39532 0.0892,0.0892 0.21891,0.13384 0.38913,0.13384 v -5.1e-4 c 0.17022,0 0.29781,-0.0442 0.38292,-0.13333 0.0892,-0.0892 0.13384,-0.22105 0.13384,-0.39532 v -1.98748 l 1.757,2.20038 c 0.0891,0.10945 0.17205,0.19021 0.24908,0.24288 0.081,0.0487 0.19032,0.0734 0.32815,0.0734 0.13778,0 0.24758,-0.0447 0.32866,-0.13384 0.081,-0.0932 0.12144,-0.21703 0.12144,-0.37104 v -3.36775 c 0,-0.17022 -0.0447,-0.29995 -0.13384,-0.38912 -0.0851,-0.0892 -0.21271,-0.13384 -0.38293,-0.13384 -0.17022,0 -0.29997,0.0447 -0.38912,0.13384 -0.0851,0.0892 -0.12764,0.2189 -0.12764,0.38912 v 1.98799 l -1.757,-2.19469 c -0.0892,-0.11351 -0.17043,-0.1948 -0.24339,-0.2434 -0.0729,-0.0486 -0.17416,-0.0729 -0.30386,-0.0729 z m 18.82934,0.0486 c -0.17834,0 -0.31614,0.049 -0.41341,0.14625 -0.0973,0.0973 -0.14573,0.23671 -0.14573,0.41909 v 3.16157 c 0,0.17832 0.0485,0.31776 0.14573,0.41909 0.10135,0.0973 0.24131,0.14625 0.41961,0.14625 h 2.03657 c 0.15403,0 0.2714,-0.0409 0.35243,-0.12196 0.0851,-0.0811 0.12764,-0.19627 0.12764,-0.34623 0,-0.14995 -0.0425,-0.26355 -0.12764,-0.34055 -0.081,-0.0811 -0.1984,-0.12144 -0.35243,-0.12144 h -1.48311 v -2.79673 c 0,-0.18238 -0.049,-0.32182 -0.14625,-0.41909 -0.0932,-0.0973 -0.23103,-0.14625 -0.41341,-0.14625 z m 3.85971,0 c -0.17834,0 -0.31614,0.049 -0.41341,0.14625 -0.0973,0.0973 -0.14624,0.23671 -0.14624,0.41909 v 3.16157 c 0,0.17832 0.049,0.31776 0.14624,0.41909 0.10135,0.0973 0.2408,0.14625 0.4191,0.14625 h 2.03657 c 0.154,0 0.27192,-0.0409 0.35295,-0.12196 0.0851,-0.0811 0.12764,-0.19627 0.12764,-0.34623 0,-0.14995 -0.0425,-0.26355 -0.12764,-0.34055 -0.081,-0.0811 -0.19895,-0.12144 -0.35295,-0.12144 h -1.48312 v -2.79673 c 0,-0.18238 -0.0485,-0.32182 -0.14573,-0.41909 -0.0932,-0.0973 -0.23103,-0.14625 -0.41341,-0.14625 z m -17.65783,0.006 c -0.19046,0 -0.33635,0.0506 -0.4377,0.15193 -0.0973,0.0973 -0.14573,0.23939 -0.14573,0.42582 v 3.13055 c 0,0.18643 0.0485,0.33017 0.14573,0.4315 0.10135,0.0973 0.24724,0.14625 0.4377,0.14625 h 2.06085 c 0.1459,0 0.25519,-0.0366 0.32815,-0.10956 0.073,-0.0729 0.10955,-0.18061 0.10955,-0.32246 0,-0.1378 -0.0366,-0.24279 -0.10955,-0.31574 -0.073,-0.077 -0.18225,-0.11576 -0.32815,-0.11576 h -1.57458 v -0.8816 h 1.44074 c 0.14186,0 0.24951,-0.0361 0.32246,-0.10903 0.077,-0.0729 0.11524,-0.18063 0.11524,-0.32246 0,-0.14185 -0.0382,-0.249 -0.11524,-0.32195 -0.0729,-0.073 -0.1806,-0.10955 -0.32246,-0.10955 h -1.44074 v -0.81494 h 1.57458 c 0.1459,0 0.25519,-0.0361 0.32815,-0.10904 0.073,-0.077 0.10955,-0.18681 0.10955,-0.32866 0,-0.1378 -0.0366,-0.24278 -0.10955,-0.31574 -0.073,-0.073 -0.18225,-0.10956 -0.32815,-0.10956 z m 4.04006,0 c -0.17834,0 -0.31831,0.0485 -0.41961,0.14573 -0.0973,0.0973 -0.14573,0.23723 -0.14573,0.41961 v 3.21014 c 0,0.17832 0.0485,0.31778 0.14573,0.4191 0.0973,0.0973 0.23507,0.14624 0.41341,0.14624 h 5.1e-4 c 0.18642,0 0.32587,-0.049 0.4191,-0.14624 0.0932,-0.10132 0.14004,-0.24078 0.14004,-0.4191 v -1.0883 h 0.33435 c 0.0973,0 0.18233,0.0183 0.25528,0.0548 0.077,0.0324 0.13995,0.0933 0.18862,0.18242 l 0.55294,1.01493 c 0.077,0.13778 0.16421,0.239 0.26148,0.30385 0.10131,0.0649 0.23106,0.0977 0.38912,0.0977 0.15807,0 0.27756,-0.0344 0.35864,-0.10335 0.0845,-0.073 0.12917,-0.16445 0.13384,-0.27388 0.004,-0.11348 -0.0262,-0.22871 -0.091,-0.34624 l -0.30437,-0.54725 c -0.0892,-0.17023 -0.2006,-0.29566 -0.33435,-0.37672 -0.0637,-0.0405 -0.13179,-0.0713 -0.20464,-0.0925 0.0814,-0.0228 0.15813,-0.0508 0.22893,-0.0842 0.22697,-0.10943 0.39921,-0.26339 0.51676,-0.46199 0.12159,-0.20264 0.18242,-0.43953 0.18242,-0.71107 0,-0.4215 -0.13352,-0.74988 -0.40101,-0.98495 -0.26345,-0.23912 -0.63867,-0.35864 -1.12499,-0.35864 z m -25.14679,0.76533 c 0.0977,0.0142 0.21702,0.17018 0.28319,0.38137 0.0756,0.24138 0.0533,0.46313 -0.0496,0.49558 -0.10296,0.0321 -0.24788,-0.13742 -0.32349,-0.37879 -0.0753,-0.24171 -0.0533,-0.46346 0.0496,-0.49558 0.0129,-0.004 0.0264,-0.005 0.0403,-0.003 z m 25.70024,0.092 h 0.74156 c 0.21481,0 0.37901,0.0447 0.49248,0.13384 0.11346,0.0851 0.17001,0.2127 0.17001,0.38292 0,0.17833 -0.0565,0.30971 -0.17001,0.39481 -0.11347,0.0851 -0.27767,0.12764 -0.49248,0.12764 h -0.74156 z m 5.46272,0.0119 c 0.32016,0 0.56942,0.11144 0.74776,0.33435 0.17834,0.22291 0.26768,0.53514 0.26768,0.93637 0,0.26749 -0.0409,0.49629 -0.12196,0.68678 -0.0811,0.19048 -0.19629,0.33637 -0.34623,0.4377 -0.14994,0.10132 -0.33244,0.15193 -0.54725,0.15193 -0.32016,0 -0.56942,-0.11143 -0.74776,-0.33434 -0.17834,-0.22697 -0.26768,-0.54084 -0.26768,-0.94207 0,-0.27154 0.0409,-0.50035 0.12195,-0.68678 0.0811,-0.19049 0.19629,-0.33474 0.34624,-0.43201 0.15402,-0.10132 0.33651,-0.15193 0.54725,-0.15193 z m -25.50284,0.45889 c 0.0535,0.005 0.10291,0.0219 0.14573,0.0532 0.17126,0.12499 0.1653,0.42509 -0.0139,0.67025 -0.17886,0.24517 -0.46332,0.3429 -0.63459,0.21756 -0.17126,-0.12501 -0.16478,-0.42508 0.0145,-0.67025 0.13415,-0.18386 0.32778,-0.28479 0.48834,-0.27078 z m -4.84983,0.0491 c 0.10414,0.0167 0.23239,0.18935 0.30489,0.42168 0.0828,0.26554 0.062,0.50842 -0.0475,0.5426 -0.10917,0.0342 -0.26542,-0.15304 -0.3483,-0.41858 -0.0828,-0.26554 -0.0614,-0.50894 0.0481,-0.54312 0.0136,-0.004 0.028,-0.005 0.0429,-0.003 z m 2.92644,0.5302 c 0.0546,0.005 0.10532,0.0225 0.14934,0.0543 0.17577,0.12742 0.17367,0.43162 -0.006,0.67955 -0.1792,0.24828 -0.46728,0.34617 -0.64337,0.2191 -0.1761,-0.12707 -0.17314,-0.43126 0.006,-0.67954 0.1344,-0.18621 0.32982,-0.28786 0.49351,-0.27337 z m -3.6928,0.0486 c 0.0986,0.0172 0.22179,0.18556 0.29249,0.41186 0.0808,0.25862 0.0626,0.49447 -0.0403,0.52658 -0.10296,0.032 -0.25202,-0.15114 -0.3328,-0.40979 -0.0808,-0.25862 -0.0626,-0.49449 0.0403,-0.52659 0.0129,-0.004 0.0262,-0.005 0.0403,-0.002 z m 0.8046,0.69763 c 0.10413,0.0166 0.23237,0.18933 0.30489,0.42168 0.0828,0.26553 0.0621,0.50893 -0.0475,0.54312 -0.10917,0.0341 -0.26544,-0.15356 -0.3483,-0.4191 -0.0829,-0.26587 -0.0611,-0.50877 0.0481,-0.5426 0.0136,-0.004 0.028,-0.005 0.0429,-0.003 z m -0.75706,0.54828 c 0.0986,0.0172 0.22179,0.18555 0.29249,0.41187 0.0809,0.25862 0.0626,0.49447 -0.0403,0.52658 -0.10296,0.0322 -0.252,-0.15117 -0.33279,-0.4098 -0.0808,-0.25862 -0.0626,-0.49447 0.0403,-0.52658 0.0129,-0.004 0.0262,-0.005 0.0403,-0.002 z m 5.48339,0.1478 c 0.0515,0.002 0.0999,0.017 0.14159,0.0455 0.16677,0.11389 0.16566,0.40544 -0.002,0.65061 -0.16781,0.24516 -0.43885,0.35115 -0.60564,0.2372 -0.16644,-0.11389 -0.16534,-0.40544 0.002,-0.65061 0.12587,-0.18388 0.30959,-0.28934 0.46406,-0.28267 z m -4.69222,0.54984 c 0.10413,0.0166 0.23288,0.18934 0.3054,0.42168 0.0828,0.26588 0.0611,0.50842 -0.048,0.5426 -0.10917,0.0341 -0.26491,-0.15304 -0.34779,-0.41858 -0.0828,-0.26554 -0.0618,-0.50844 0.0476,-0.5426 0.0136,-0.004 0.028,-0.005 0.0429,-0.003 z m 2.81223,0.0713 c 0.0546,0.005 0.10584,0.0225 0.14986,0.0543 0.17575,0.12707 0.17313,0.43128 -0.006,0.67955 -0.17921,0.24828 -0.46727,0.34617 -0.64337,0.2191 -0.1761,-0.12707 -0.17313,-0.43126 0.006,-0.67954 0.13441,-0.1862 0.32982,-0.28786 0.49351,-0.27337 z" /></g></svg>
