<?xml version="1.0" encoding="UTF-8" standalone="no"?>
<!-- Created with Inkscape (http://www.inkscape.org/) -->

<svg
   width="163.94531"
   height="33.203125"
   viewBox="0 0 43.377196 8.7849932"
   version="1.1"
   id="svg1"
   xml:space="preserve"
   inkscape:version="1.3 (0e150ed6c4, 2023-07-21)"
   sodipodi:docname="risunok.svg"
   xmlns:inkscape="http://www.inkscape.org/namespaces/inkscape"
   xmlns:sodipodi="http://sodipodi.sourceforge.net/DTD/sodipodi-0.dtd"
   xmlns="http://www.w3.org/2000/svg"
   xmlns:svg="http://www.w3.org/2000/svg"><sodipodi:namedview
     id="namedview1"
     pagecolor="#ffffff"
     bordercolor="#000000"
     borderopacity="0.25"
     inkscape:showpageshadow="2"
     inkscape:pageopacity="0.0"
     inkscape:pagecheckerboard="0"
     inkscape:deskcolor="#d1d1d1"
     inkscape:document-units="mm"
     showguides="true"
     inkscape:zoom="1.28"
     inkscape:cx="207.42188"
     inkscape:cy="208.59375"
     inkscape:window-width="1600"
     inkscape:window-height="878"
     inkscape:window-x="-8"
     inkscape:window-y="-8"
     inkscape:window-maximized="1"
     inkscape:current-layer="layer1" /><defs
     id="defs1" /><g
     inkscape:label="Слой 1"
     inkscape:groupmode="layer"
     id="layer1"
     transform="translate(-17.998902,-12.050428)"><rect
       style="fill:#000000;fill-opacity:1;stroke-width:0.079375;stroke-linecap:round;stroke-linejoin:round;paint-order:fill markers stroke"
       id="rect1"
       width="79.375"
       height="105.83333"
       x="0"
       y="0" /><rect
       style="fill:#1a1a1a;fill-opacity:1;stroke-width:0.0764376;stroke-linecap:round;stroke-linejoin:round;paint-order:fill markers stroke"
       id="rect2"
       width="67.934837"
       height="94.355225"
       x="5.7200813"
       y="5.7390552"
       ry="2.898613" /><path
       id="path6"
       style="font-weight:900;font-size:10.6667px;line-height:1;font-family:Nunito;-inkscape-font-specification:'Nunito Heavy';letter-spacing:0.5px;white-space:pre;fill:#666666;stroke-width:0.3;stroke-linecap:round;stroke-linejoin:round;paint-order:fill markers stroke"
       d="m 37.852322,32.546416 a 6.4026806,6.4026806 0 0 0 -6.402681,6.402681 6.4026806,6.4026806 0 0 0 6.402681,6.40268 6.4026806,6.4026806 0 0 0 6.40268,-6.40268 6.4026806,6.4026806 0 0 0 -6.40268,-6.402681 z m 0.21995,2.35468 h 7.54e-4 c 0.341291,6e-5 0.693301,0.04118 1.056819,0.122781 0.371217,0.07424 0.69786,0.189082 0.979986,0.344991 0.207874,0.111364 0.352973,0.252574 0.434629,0.42333 0.08163,0.170758 0.107322,0.345332 0.07759,0.523514 -0.0223,0.178181 -0.08512,0.337258 -0.189067,0.478318 -0.10393,0.141055 -0.23739,0.238034 -0.400733,0.290003 -0.163328,0.04455 -0.341777,0.01817 -0.534812,-0.07834 -0.222727,-0.103945 -0.445411,-0.181541 -0.668139,-0.23351 -0.215293,-0.0594 -0.441857,-0.08964 -0.679437,-0.08964 -0.460304,0 -0.845937,0.08922 -1.157755,0.267406 -0.304385,0.170758 -0.534828,0.423685 -0.690737,0.757776 -0.155909,0.334091 -0.233509,0.746094 -0.233509,1.236094 0,0.490001 0.07754,0.905125 0.233509,1.246639 0.155909,0.334091 0.386352,0.590894 0.690737,0.769075 0.311818,0.170757 0.697451,0.256108 1.157755,0.256108 0.193035,0 0.400969,-0.02249 0.623696,-0.06704 0.222728,-0.05197 0.441532,-0.130327 0.65684,-0.234263 0.222727,-0.09651 0.419805,-0.122131 0.590553,-0.07758 0.178182,0.04454 0.319401,0.133768 0.42333,0.267406 0.111364,0.133636 0.181959,0.28959 0.211665,0.467772 0.02974,0.170758 0.0036,0.341456 -0.07759,0.512214 -0.07419,0.170758 -0.207697,0.308092 -0.400732,0.412032 -0.259839,0.155909 -0.582618,0.278498 -0.968688,0.367589 -0.378637,0.08909 -0.757275,0.133326 -1.135911,0.133326 -0.868632,0 -1.615043,-0.166824 -2.238679,-0.500915 -0.623636,-0.334091 -1.102369,-0.805829 -1.43646,-1.414616 -0.326672,-0.608789 -0.49037,-1.321075 -0.49037,-2.137742 0,-0.608787 0.09315,-1.162001 0.278705,-1.659424 0.193035,-0.497426 0.467699,-0.924173 0.824062,-1.280537 0.363783,-0.356363 0.802161,-0.627911 1.314433,-0.813517 0.519503,-0.192955 1.101954,-0.289175 1.747556,-0.28925 z m 38.975755,0.170236 c -0.56889,0 -1.087648,0.09231 -1.556981,0.277198 -0.469335,0.177779 -0.874424,0.437533 -1.215756,0.778868 -0.334223,0.341332 -0.593978,0.75061 -0.778868,1.227054 -0.177778,0.476446 -0.266653,1.00626 -0.266653,1.589372 0,0.775112 0.156391,1.453694 0.469279,2.036806 0.320001,0.583111 0.76781,1.038542 1.34381,1.365654 0.576,0.319999 1.244279,0.479824 2.005169,0.479824 0.568889,0 1.0884,-0.08887 1.557735,-0.266653 0.469333,-0.184888 0.870987,-0.448078 1.20521,-0.789413 0.341334,-0.348444 0.601089,-0.760401 0.778867,-1.236847 0.184889,-0.476444 0.277199,-1.006259 0.277199,-1.589371 0,-0.782223 -0.159824,-1.461559 -0.479825,-2.037559 -0.32,-0.583113 -0.768562,-1.034356 -1.344563,-1.354355 -0.568889,-0.320001 -1.233734,-0.480578 -1.994623,-0.480578 z m -30.085067,0.02184 c -0.312889,0 -0.554719,0.08469 -0.725386,0.255354 -0.170668,0.170667 -0.256108,0.420119 -0.256108,0.747231 v 5.706672 c 0,0.320001 0.08544,0.568699 0.256108,0.746477 0.170667,0.170667 0.412497,0.256107 0.725386,0.256107 0.327112,0 0.572376,-0.08544 0.735931,-0.256107 0.163556,-0.177778 0.245562,-0.426476 0.245562,-0.746477 v -5.706672 c 0,-0.327112 -0.08544,-0.576564 -0.256107,-0.747231 C 47.52479,35.17786 47.282961,35.093172 46.96296,35.093172 Z m 3.699996,0 c -0.256,0 -0.461979,0.08469 -0.618424,0.255354 -0.156445,0.163557 -0.235016,0.401952 -0.235016,0.714841 v 5.813634 c 0,0.305778 0.07857,0.536551 0.235016,0.692996 0.156445,0.156444 0.383783,0.235016 0.682451,0.235016 0.298667,0 0.522571,-0.07857 0.671905,-0.235016 0.156444,-0.156445 0.234262,-0.387218 0.234262,-0.692996 v -3.487578 l 3.08308,3.861193 c 0.156444,0.192001 0.30253,0.333899 0.437642,0.426343 0.142222,0.08533 0.333709,0.128054 0.575488,0.128054 0.241778,0 0.434018,-0.07857 0.576241,-0.235016 0.142222,-0.163557 0.213171,-0.379838 0.213171,-0.65006 V 36.00989 c 0,-0.298668 -0.07782,-0.526006 -0.234262,-0.682451 -0.149334,-0.156444 -0.373991,-0.234263 -0.672658,-0.234263 -0.298667,0 -0.526006,0.07782 -0.682451,0.234263 -0.149334,0.156445 -0.223717,0.383783 -0.223717,0.682451 v 3.489084 l -3.083079,-3.851401 c -0.156445,-0.199112 -0.298343,-0.34101 -0.426343,-0.426343 -0.128,-0.08533 -0.30575,-0.128054 -0.533306,-0.128054 z m 32.848012,0.08512 c -0.312889,0 -0.554719,0.08544 -0.725386,0.256107 -0.170667,0.170668 -0.256107,0.415932 -0.256107,0.735932 v 5.546228 c 0,0.312889 0.08544,0.558907 0.256107,0.736685 0.177779,0.170667 0.423043,0.255354 0.735932,0.255354 h 3.573449 c 0.270223,0 0.476201,-0.07095 0.618424,-0.213171 0.149333,-0.142223 0.22447,-0.344767 0.22447,-0.607879 0,-0.263111 -0.07514,-0.462221 -0.22447,-0.597332 -0.142223,-0.142222 -0.348201,-0.213172 -0.618424,-0.213172 h -2.602501 v -4.906713 c 0,-0.32 -0.08544,-0.565264 -0.256108,-0.735932 -0.163555,-0.170667 -0.405385,-0.256107 -0.725386,-0.256107 z m 6.74014,0 c -0.31289,0 -0.554719,0.08544 -0.725386,0.256107 -0.170667,0.170668 -0.256107,0.415932 -0.256107,0.735932 v 5.546228 c 0,0.312889 0.08544,0.558907 0.256107,0.736685 0.177778,0.170667 0.423042,0.255354 0.735932,0.255354 h 3.573449 c 0.270223,0 0.476201,-0.07095 0.618423,-0.213171 0.149334,-0.142223 0.224471,-0.344767 0.224471,-0.607879 0,-0.263111 -0.07514,-0.462221 -0.224471,-0.597332 -0.142222,-0.142222 -0.3482,-0.213172 -0.618423,-0.213172 h -2.602502 v -4.906713 c 0,-0.32 -0.08544,-0.565264 -0.256107,-0.735932 -0.163556,-0.170667 -0.405385,-0.256107 -0.725386,-0.256107 z M 59.41881,35.18884 c -0.334223,0 -0.590543,0.08888 -0.768321,0.266653 -0.170668,0.170667 -0.255354,0.419365 -0.255354,0.746477 v 5.4935 c 0,0.327112 0.08469,0.579998 0.255354,0.757776 0.177778,0.170667 0.434098,0.255354 0.768321,0.255354 h 3.616385 c 0.256,0 0.447488,-0.06333 0.575488,-0.191327 0.128,-0.128001 0.19208,-0.316807 0.19208,-0.565696 0,-0.241778 -0.06408,-0.426397 -0.19208,-0.554397 -0.128,-0.135111 -0.319488,-0.202626 -0.575488,-0.202626 H 60.27225 v -1.547189 h 2.527929 c 0.248889,0 0.437695,-0.06408 0.565696,-0.19208 0.135111,-0.128 0.202626,-0.316053 0.202626,-0.564942 0,-0.24889 -0.06752,-0.437696 -0.202626,-0.565696 -0.128001,-0.128001 -0.316807,-0.19208 -0.565696,-0.19208 H 60.27225 v -1.428928 h 2.762945 c 0.256,0 0.447488,-0.06408 0.575488,-0.192081 0.128,-0.135111 0.19208,-0.327352 0.19208,-0.576241 0,-0.241778 -0.06408,-0.426397 -0.19208,-0.554397 -0.128,-0.128 -0.319488,-0.19208 -0.575488,-0.19208 z m 7.017338,0 c -0.312888,0 -0.558153,0.08544 -0.735931,0.256107 -0.170667,0.170667 -0.256107,0.415931 -0.256107,0.735932 v 5.632099 c 0,0.31289 0.08544,0.558154 0.256107,0.735932 0.170666,0.170667 0.412496,0.256107 0.725386,0.256107 0.327112,0 0.572377,-0.08544 0.735931,-0.256107 0.163557,-0.177778 0.245562,-0.423042 0.245562,-0.735932 v -1.909505 h 0.586787 c 0.170667,0 0.319435,0.03242 0.447434,0.09642 0.135112,0.05689 0.245347,0.162935 0.33068,0.31938 l 0.970948,1.781452 c 0.135111,0.241779 0.288066,0.419528 0.458733,0.533306 0.177778,0.113778 0.405118,0.170989 0.68245,0.170989 0.277334,0 0.4875,-0.06065 0.629723,-0.181535 0.149332,-0.128 0.227149,-0.287824 0.234263,-0.479824 0.0071,-0.199112 -0.04591,-0.401657 -0.159691,-0.607878 l -0.533305,-0.960402 c -0.156445,-0.298668 -0.35212,-0.519137 -0.586787,-0.66136 -0.111574,-0.071 -0.231655,-0.124707 -0.359304,-0.16195 0.142968,-0.04008 0.277946,-0.08813 0.402239,-0.146885 0.398224,-0.192 0.699946,-0.462813 0.906168,-0.811257 0.213334,-0.355557 0.320134,-0.770949 0.320134,-1.247393 0,-0.739556 -0.234961,-1.315525 -0.704295,-1.727971 -0.462222,-0.419555 -1.119445,-0.629722 -1.972779,-0.629722 z m 0.970948,1.504253 h 1.300874 c 0.37689,0 0.664874,0.07782 0.863986,0.234263 0.19911,0.149334 0.299042,0.373238 0.299042,0.671905 0,0.31289 -0.09993,0.544415 -0.299042,0.693749 -0.199112,0.149333 -0.487096,0.223717 -0.863986,0.223717 h -1.300874 z m 9.640931,0.02109 c 0.561778,0 0.999283,0.195676 1.312173,0.586787 0.31289,0.391112 0.469279,0.938853 0.469279,1.642853 0,0.469334 -0.07095,0.870988 -0.213172,1.20521 -0.142222,0.334223 -0.344766,0.589791 -0.607878,0.767569 -0.263112,0.177778 -0.583512,0.266653 -0.960402,0.266653 -0.56178,0 -0.99853,-0.194922 -1.31142,-0.586034 -0.312888,-0.398223 -0.470032,-0.949397 -0.470032,-1.653398 0,-0.476445 0.0717,-0.878852 0.213925,-1.205964 0.142223,-0.334223 0.344766,-0.586356 0.607878,-0.757023 0.270222,-0.177778 0.58987,-0.266653 0.959649,-0.266653 z"
       transform="matrix(0.68604025,0,0,0.68604025,-3.576818,-10.277724)" /></g></svg>
