<?xml version="1.0" encoding="UTF-8" standalone="no"?>
<!-- Created with Inkscape (http://www.inkscape.org/) -->

<svg
   width="30"
   height="30.000002"
   viewBox="0 0 7.9374998 7.9375002"
   version="1.1"
   id="svg1"
   xml:space="preserve"
   inkscape:version="1.3 (0e150ed6c4, 2023-07-21)"
   sodipodi:docname="up.svg"
   xmlns:inkscape="http://www.inkscape.org/namespaces/inkscape"
   xmlns:sodipodi="http://sodipodi.sourceforge.net/DTD/sodipodi-0.dtd"
   xmlns="http://www.w3.org/2000/svg"
   xmlns:svg="http://www.w3.org/2000/svg"><sodipodi:namedview
     id="namedview1"
     pagecolor="#ffffff"
     bordercolor="#000000"
     borderopacity="0.25"
     inkscape:showpageshadow="2"
     inkscape:pageopacity="0.0"
     inkscape:pagecheckerboard="0"
     inkscape:deskcolor="#d1d1d1"
     inkscape:document-units="mm"
     showguides="true"
     inkscape:zoom="1.28"
     inkscape:cx="207.42188"
     inkscape:cy="208.59375"
     inkscape:window-width="1600"
     inkscape:window-height="878"
     inkscape:window-x="-8"
     inkscape:window-y="-8"
     inkscape:window-maximized="1"
     inkscape:current-layer="layer1"
     showgrid="false"><inkscape:grid
       id="grid2"
       units="mm"
       originx="-31.835936"
       originy="6.2589198e-06"
       spacingx="0.99999997"
       spacingy="0.99999996"
       empcolor="#0099e5"
       empopacity="0.30196078"
       color="#0099e5"
       opacity="0.14901961"
       empspacing="5"
       dotted="false"
       gridanglex="30"
       gridanglez="30"
       visible="false" /></sodipodi:namedview><defs
     id="defs1" /><g
     inkscape:label="Слой 1"
     inkscape:groupmode="layer"
     id="layer1"
     transform="translate(-92.55249,-42.354221)"><g
       id="g2"><circle
         style="fill:#fac659;fill-opacity:1;stroke-width:0.07;stroke-linecap:round;stroke-linejoin:round;paint-order:fill markers stroke"
         id="path1"
         cx="96.52124"
         cy="46.322971"
         r="3.96875" /><path
         id="rect1"
         style="fill:#1a1a1a;fill-opacity:1;stroke:#1a1a1a;stroke-width:0.171052;stroke-linecap:round;stroke-linejoin:round;stroke-dasharray:none;stroke-opacity:1;paint-order:fill markers stroke"
         d="m 96.516624,45.424876 c -0.0011,2.9e-5 -0.0022,2.23e-4 -0.0032,2.72e-4 -0.0028,1.21e-4 -0.0056,2.92e-4 -0.0084,5.25e-4 -0.004,3.73e-4 -0.0082,6.76e-4 -0.01222,0.0014 -0.002,3.15e-4 -0.004,6.76e-4 -0.006,10e-4 -0.0023,4.6e-4 -0.0048,0.0011 -0.007,0.0016 -0.0051,0.0011 -0.01,0.0025 -0.01493,0.0041 -4.64e-4,1.52e-4 -8.89e-4,3.88e-4 -0.0014,5.25e-4 -0.0049,0.0016 -0.0099,0.0034 -0.01467,0.0054 -8.08e-4,3.59e-4 -0.0016,7.43e-4 -0.0024,0.0011 -0.0081,0.0036 -0.01579,0.0079 -0.02336,0.01275 l -1.572112,0.90754 c -0.08749,0.05052 -0.117294,0.16145 -0.06678,0.248945 0.05052,0.08749 0.16172,0.117298 0.249211,0.06678 l 1.488228,-0.859217 1.487956,0.859219 c 0.08749,0.05051 0.198425,0.02071 0.24894,-0.06678 0.05052,-0.08749 0.02071,-0.198429 -0.06678,-0.248942 l -1.57157,-0.907541 c -0.0025,-0.0015 -0.0051,-0.0029 -0.0076,-0.0044 -0.0049,-0.0029 -0.01001,-0.0055 -0.01521,-0.0078 -0.0015,-7.43e-4 -0.0031,-0.0015 -0.0046,-0.0022 -0.0044,-0.0019 -0.0088,-0.0034 -0.0133,-0.0048 -4.62e-4,-1.55e-4 -8.88e-4,-3.92e-4 -0.0014,-5.26e-4 -0.0049,-0.0016 -0.0099,-0.0029 -0.01493,-0.0041 -0.0023,-5.25e-4 -0.0047,-0.0011 -0.007,-0.0016 -0.002,-3.88e-4 -0.004,-8.08e-4 -0.006,-0.0011 -0.004,-6.3e-4 -0.0082,-10e-4 -0.01221,-0.0014 -0.0027,-2.53e-4 -0.0056,-4.22e-4 -0.0084,-5.25e-4 -0.0027,-1.19e-4 -0.0053,-2.7e-4 -0.0078,-2.73e-4 -0.0016,0 -0.0032,-4.5e-5 -0.0048,-10e-7 z" /></g></g></svg>
