<?xml version="1.0" encoding="UTF-8" standalone="no"?>
<!-- Created with Inkscape (http://www.inkscape.org/) -->

<svg
   width="30"
   height="30"
   viewBox="0 0 7.9374998 7.9374997"
   version="1.1"
   id="svg1"
   xml:space="preserve"
   inkscape:version="1.3 (0e150ed6c4, 2023-07-21)"
   sodipodi:docname="add-btn.svg"
   xmlns:inkscape="http://www.inkscape.org/namespaces/inkscape"
   xmlns:sodipodi="http://sodipodi.sourceforge.net/DTD/sodipodi-0.dtd"
   xmlns="http://www.w3.org/2000/svg"
   xmlns:svg="http://www.w3.org/2000/svg"><sodipodi:namedview
     id="namedview1"
     pagecolor="#ffffff"
     bordercolor="#000000"
     borderopacity="0.25"
     inkscape:showpageshadow="2"
     inkscape:pageopacity="0.0"
     inkscape:pagecheckerboard="0"
     inkscape:deskcolor="#d1d1d1"
     inkscape:document-units="mm"
     showguides="true"
     inkscape:zoom="1.28"
     inkscape:cx="207.42188"
     inkscape:cy="208.59375"
     inkscape:window-width="1600"
     inkscape:window-height="878"
     inkscape:window-x="-8"
     inkscape:window-y="-8"
     inkscape:window-maximized="1"
     inkscape:current-layer="layer1" /><defs
     id="defs1" /><g
     inkscape:label="Слой 1"
     inkscape:groupmode="layer"
     id="layer1"
     transform="translate(-84.129232,-42.354223)"><path
       id="path2"
       style="fill:#fac659;fill-opacity:1;stroke-width:0.068933;stroke-linecap:round;stroke-linejoin:round;paint-order:fill markers stroke"
       d="m 88.097982,42.354223 a 3.96875,3.96875 0 0 0 -3.96875,3.96875 3.96875,3.96875 0 0 0 3.96875,3.96875 3.96875,3.96875 0 0 0 3.96875,-3.96875 3.96875,3.96875 0 0 0 -3.96875,-3.96875 z m 0.0031,2.395719 c 0.06411,7.64e-4 0.128127,0.02529 0.17725,0.07441 l 1.577681,1.578198 c 0.0998,0.0998 0.0998,0.260385 0,0.360185 -0.0499,0.0499 -0.114714,0.07493 -0.179834,0.07493 -0.06512,0 -0.130451,-0.02503 -0.180351,-0.07493 l -1.397847,-1.397847 -1.397847,1.397847 c -0.0998,0.0998 -0.260385,0.0998 -0.360185,0 -0.0998,-0.0998 -0.0998,-0.260385 0,-0.360185 l 1.578198,-1.578198 c 0.04366,-0.04366 0.09878,-0.06788 0.155546,-0.07338 0.0091,-8.78e-4 0.01823,-0.0011 0.02739,-10e-4 z"
       inkscape:export-filename="..\up.svg"
       inkscape:export-xdpi="96"
       inkscape:export-ydpi="96" /></g></svg>
